<?xml version="1.0" encoding="utf-8"?>
<!-- Generator: Adobe Illustrator 24.0.1, SVG Export Plug-In . SVG Version: 6.00 Build 0)  -->
<svg version="1.1" id="Capa_1" xmlns="http://www.w3.org/2000/svg" xmlns:xlink="http://www.w3.org/1999/xlink" x="0px" y="0px"
	 viewBox="0 0 985.68 960.62" enable-background="new 0 0 985.68 960.62" xml:space="preserve">
<g>
	<path fill="#FFFFFF" d="M985.21,527.05c-0.51,16.37-3.06,32.51-5.66,48.64c-3.67,22.69-9.69,44.81-17.1,66.54
		c-5.22,15.32-11.51,30.21-18.43,44.84c-8.99,19-19.62,37.05-31.03,54.68c-11.84,18.29-25.2,35.43-39.57,51.78
		c-5.04,5.74-10.36,11.23-15.71,16.69c-17.7,18.1-36.55,34.88-56.84,50c-19.2,14.31-39.22,27.34-60.35,38.66
		c-28.23,15.12-57.48,27.83-88.04,37.49c-25.82,8.17-52.09,14.37-78.89,18.37c-12,1.79-24.06,2.91-36.12,4.14
		c-21.31,2.18-42.67,1.71-64.02,1.65c-11.15-0.03-22.25-1.29-33.34-2.33c-31.28-2.94-61.98-8.89-92.17-17.57
		c-23.58-6.77-46.62-15.07-68.91-25.31c-28.65-13.16-56.05-28.54-81.87-46.7c-16.29-11.45-31.71-23.94-46.54-37.22
		c-8.41-7.53-16.56-15.32-24.28-23.53c-17.53-18.63-33.9-38.24-48.32-59.42c-10.16-14.92-19.41-30.39-27.82-46.36
		c-10.94-20.77-20.03-42.33-27.52-64.54c-7.65-22.69-13.31-45.89-16.9-69.59c-1.83-12.09-3.12-24.24-4.49-36.37
		c-0.5-4.46-0.25-9-0.35-13.51c-0.02-1.05,0.29-2.21-0.94-2.86c0-8.44,0-16.88,0-25.32c1.12-0.56,0.96-1.59,0.94-2.56
		c-0.1-6.76,0.25-13.5,0.81-20.24c1-12.09,2.26-24.14,4.2-36.12c3.97-24.51,9.83-48.56,17.88-72.06c7.19-21,15.79-41.4,26.16-61.02
		c11.61-21.96,24.72-42.98,39.74-62.79c9.23-12.18,18.97-23.93,29.33-35.18c7.78-8.45,15.91-16.53,24.23-24.43
		c21.3-20.21,44.39-38.15,68.86-54.38c9.07-6.02,18.84-8.77,29.5-9.53c9.6-0.69,18.89,0.56,27.41,4.9
		c19.1,9.73,30.37,24.87,30.86,46.94c0.17,7.83-1.05,15.38-4.33,22.59c-4.5,9.89-11,18-20.22,23.86
		c-14.08,8.94-27.31,19.05-40.13,29.69c-11.11,9.22-21.42,19.29-31.3,29.77c-21.02,22.28-38.5,47.14-53.09,74.09
		c-14.8,27.34-25.31,56.25-32.17,86.51c-2.88,12.7-4.61,25.59-5.69,38.58c-0.79,9.46-1.36,18.92-1.52,28.42
		c-0.3,18.04,0.95,35.94,3.79,53.77c2.93,18.33,7.17,36.32,13.08,53.91c4.34,12.93,9.58,25.49,15.39,37.82
		c9.78,20.74,21.8,40.11,35.46,58.49c7.07,9.51,14.6,18.65,22.68,27.33c4.08,4.38,8.15,8.75,12.4,12.96
		c14.49,14.39,30.21,27.31,46.8,39.18c17.74,12.7,36.45,23.78,56.13,33.18c13.36,6.38,27.08,11.89,41.04,16.84
		c18.4,6.53,37.19,11.65,56.37,15.34c11.53,2.22,23.15,3.86,34.82,5.12c9.73,1.05,19.49,1.51,29.27,1.85
		c7.15,0.25,14.29,0.54,21.44,0.48c15.18-0.12,30.29-1.24,45.34-3.22c17.2-2.26,34.23-5.44,51.02-9.79
		c23.21-6.01,45.67-14.12,67.48-24.07c17.61-8.03,34.45-17.43,50.58-28.1c15.54-10.28,30.19-21.75,44.13-34.1
		c7.12-6.31,13.99-12.89,20.57-19.75c12.84-13.37,24.58-27.66,35.14-42.91c10.68-15.43,20.09-31.59,28.32-48.44
		c7.15-14.65,13.01-29.82,17.85-45.37c4.11-13.2,7.56-26.57,9.84-40.23c1.54-9.27,2.66-18.58,3.44-27.94
		c0.65-7.9,0.83-15.82,1.26-23.73c0.5-9.32,0.07-18.61-0.44-27.88c-0.86-15.65-3.48-31.08-6.65-46.43
		c-4.9-23.72-12.64-46.49-22.6-68.52c-9.28-20.52-20.72-39.8-33.85-58.08c-8.58-11.94-17.9-23.26-27.86-34.08
		c-19.73-21.45-41.82-40.1-65.97-56.37c-4.13-2.79-8.52-5.22-12.25-8.61c-9.32-8.48-16.21-18.44-18.14-31.13
		c-2.13-14.02-0.37-27.48,8.04-39.3c10.37-14.57,24.41-22.72,42.59-23.59c14.38-0.69,27.16,3.4,39.03,11.26
		c15.29,10.12,29.98,21.06,44.23,32.58c4.65,3.76,9,7.86,13.29,12c7.48,7.21,15.45,13.88,22.67,21.37
		c17.84,18.52,34.25,38.2,49.02,59.25c10.54,15.03,20.02,30.71,28.72,46.86c12.53,23.28,22.77,47.53,30.78,72.73
		c6.95,21.89,12.34,44.15,15.63,66.9c1.53,10.55,2.72,21.14,3.65,31.76c0.24,2.73,0.15,5.49,0.21,8.23c0,1.45-0.06,2.91,0.03,4.35
		c0.09,1.52-0.43,3.1,0.44,4.54c0,10.21,0,20.41,0,30.62c-0.79,0.7-0.45,1.64-0.46,2.48C985.18,520.03,985.21,523.54,985.21,527.05z
		"/>
	<path fill="#FFFFFF" d="M484.01,0c0.23,0.81,0.92,0.52,1.45,0.59c12.1,1.49,22.95,5.91,31.91,14.28
		c8.77,8.2,14.17,18.19,14.56,30.43c0.6,18.6-7.97,32.43-23.68,41.28c-21.03,11.85-42.3,11.06-62.47-2.43
		c-11.75-7.86-18.74-19.17-19.96-33.43c-0.98-11.53,2.56-21.89,9.93-30.82c9.54-11.55,22.09-17.51,36.78-19.32
		c0.53-0.07,1.21,0.23,1.45-0.58C477.33,0,480.67,0,484.01,0z"/>
	<path fill="#99B9B5" d="M985.21,527.05c0-3.51-0.02-7.02,0.02-10.54c0.01-0.83-0.33-1.77,0.46-2.48c0,4.32,0,8.64,0,12.95
		l-0.23,0.11L985.21,527.05z"/>
	<path fill="#99B9B5" d="M985.68,483.42c-0.86-1.44-0.35-3.03-0.44-4.54c-0.08-1.45-0.02-2.9-0.03-4.35
		c0.17-0.11,0.33-0.09,0.47,0.06C985.68,477.53,985.68,480.48,985.68,483.42z"/>
	<path fill="#FFFFFF" d="M512.07,516.36c-0.51-1.28-0.32-2.26-0.33-3.21c-0.14-9.89,0.27-19.77,0.93-29.64
		c0.15-2.15,0.07-4.32,0.01-6.47c-0.04-1.58,0.51-2.74,1.7-3.85c9.95-9.25,18.64-19.6,25.9-31.08c5.07-8.01,4.22-16.21-0.24-24.23
		c-4.14-7.43-10.33-12.94-16.89-18.17c-10.32-8.22-21.82-14.05-34.24-18.41c-14.16-4.96-27.78-11.25-41.3-17.75
		c-13.63-6.55-26.78-13.9-39.35-22.32c-11.19-7.5-21.7-15.83-30.89-25.71c-9.34-10.03-16.5-21.4-20.55-34.57
		c-5.63-18.34-2.77-35.61,6.85-51.94c7.16-12.15,16.68-22.21,27.65-30.96c12.06-9.61,25.57-16.69,39.81-22.44
		c1.52-0.61,3.09-1.2,4.77-1.28c0.62,0.85,0.35,1.76,0.35,2.59c0.02,9.62-0.07,19.23,0.06,28.85c0.04,2.87-1.1,4.48-3.6,5.72
		c-9,4.44-17.52,9.67-24.82,16.62c-9.78,9.3-16.19,20.45-18.66,33.89c-1.46,7.93,1.28,14.37,5.53,20.63
		c6.48,9.52,14.74,17.26,23.96,24.02c13.71,10.05,28.38,18.52,43.47,26.31c15.94,8.24,32.3,15.56,48.62,22.99
		c14.41,6.56,28.19,14.19,40.28,24.55c8.09,6.93,15.25,14.67,20.38,24.12c3.5,6.44,5.68,13.29,6.34,20.62
		c1.21,13.39-2.95,25.3-10.05,36.36c-6.92,10.79-15.63,20.05-24.99,28.75c-9.11,8.48-18.68,16.41-28.37,24.19
		C513.71,515.09,513.01,515.63,512.07,516.36z"/>
	<path fill="#FFFFFF" d="M454.81,105.77c16.3,6.62,32.33,6.46,48.4-0.05c-0.49,11.64-0.74,23.14-1.03,34.64
		c-0.16,6.26-0.37,12.52-0.55,18.78c-0.3,10.66-0.86,21.31-1.1,31.97c-0.1,4.31-0.3,8.61-0.4,12.91
		c-0.25,10.08-0.44,20.16-0.87,30.23c-0.24,5.57-0.41,11.14-0.57,16.72c-0.28,9.68-0.78,19.35-1.13,29.03
		c-0.25,7.04-0.29,14.1-0.64,21.13c-0.4,8.29-0.32,16.61-1.02,24.83c-0.82,0.57-1.41,0.01-1.99-0.23
		c-10.42-4.33-20.4-9.58-30.5-14.58c-1.51-0.75-2.01-1.84-2.04-3.51c-0.11-7.24-0.27-14.49-0.57-21.72
		c-0.51-12.22-0.85-24.45-1.21-36.68c-0.17-5.87-0.36-11.74-0.57-17.6c-0.44-11.73-0.78-23.47-1.19-35.21
		c-0.38-11.05-0.78-22.1-1.17-33.15c-0.4-11.34-0.82-22.69-1.2-34.03c-0.19-5.57-0.46-11.14-0.53-16.72
		C454.9,110.39,454.25,108.26,454.81,105.77z"/>
	<path fill="#FFFFFF" d="M503.87,757.99c-0.59-1.26-0.36-2.25-0.37-3.2c-0.02-5.89,0.07-11.78-0.05-17.66
		c-0.05-2.29,0.54-4.19,1.92-5.98c2.84-3.68,5.05-7.73,6.15-12.27c1.82-7.52,0.83-14.78-2.39-21.77
		c-3.11-6.74-7.49-12.61-12.38-18.14c-10.58-11.93-23.45-21.01-36.69-29.66c-8.45-5.52-17.41-10.24-25.62-16.15
		c-5.75-4.13-10.98-8.81-15.5-14.29c-11.04-13.39-13.33-28.35-8.3-44.7c3-9.76,8.39-18.07,15.24-25.52
		c6.17-6.71,12.66-13.12,19.48-19.17c0.21-0.18,0.49-0.29,0.76-0.45c0.58,0.77,0.71,1.61,0.75,2.48c0.27,4.98,0.71,9.96,0.76,14.95
		c0.08,8.03,0.1,16.05,1,24.04c0.17,1.47-0.37,2.69-1.2,3.83c-1.28,1.74-2.42,3.56-3.37,5.51c-3.75,7.69-2.68,14.78,2.58,21.39
		c3.66,4.6,8.4,7.93,13.31,10.98c10.9,6.78,21.94,13.35,32.28,21c12.98,9.6,24.89,20.29,34.4,33.45
		c7.05,9.76,12.39,20.29,13.63,32.4c1.51,14.79-1.04,28.71-10.52,40.73c-4.24,5.38-9.57,9.51-15.54,12.79
		C510.86,754.41,507.45,756.12,503.87,757.99z"/>
	<path fill="#FFFFFF" d="M613.6,253.71c-3.78,0.24-8.01,0.57-12.2,0.11c-12.76-1.39-23.91-6.52-33.45-15.08
		c-11.14-9.99-18.58-22.37-23.25-36.5c-0.55-1.68-1.15-3.33-1.93-4.92c-1.62-3.3-4.32-4.91-7.87-5.41c-2.73-0.39-5.46-0.37-8.2-0.39
		c-3.55-0.02-4.53-0.81-4.33-4.31c0.38-6.84,0.22-13.69,0.87-20.51c0.18-1.85,0.02-3.73,0.05-5.59c0.06-2.98,0.47-3.41,3.42-3.46
		c5.68-0.09,11.36,0.24,17,0.85c8.08,0.87,16.06,2.34,23.88,4.62c14.57,4.24,27.96,10.74,39.66,20.51
		c16.07,13.42,25.98,30.6,31.02,50.76c0.91,3.63,1.57,7.24,0.82,11.01c-0.87,4.39-3.6,6.79-7.78,7.79c-3.46,0.83-7,0.9-10.52,0.7
		C618.54,253.77,616.29,253.78,613.6,253.71z M614.33,212.28c0.75-0.17,1.31-0.62,1.25-1.38c-0.05-0.7-0.46-1.32-1.3-1.32
		c-0.95,0-1.44,0.52-1.35,1.48C613,211.9,613.66,212.12,614.33,212.28z"/>
	<path fill="#FFFFFF" d="M485.95,604.32c-4.64-2.97-9.07-5.83-13.53-8.66c-1.03-0.66-1.33-1.56-1.36-2.73
		c-0.17-6.85-0.38-13.7-0.57-20.55c-0.28-9.98-0.45-19.97-0.89-29.95c-0.25-5.67-0.25-11.35-0.58-17.02
		c-0.42-7.33-0.22-14.68-0.85-22c-0.25-2.92-0.09-5.87-0.24-8.81c-0.34-6.84-0.39-13.7-0.65-20.55c-0.33-8.8-0.77-17.59-1.14-26.39
		c-0.23-5.67-0.4-11.35-0.62-17.02c-0.38-9.68-0.78-19.36-1.15-29.03c-0.07-1.96-0.08-3.93,0-5.89c0.08-1.84,0.7-2.37,2.44-1.75
		c2.67,0.95,5.25,2.14,7.85,3.29c5.02,2.22,10.01,4.49,15.02,6.73c3.47,1.55,3.7,2,3.43,5.78c-0.18,2.44-0.11,4.89-0.24,7.34
		c-0.33,5.96-0.36,11.93-0.65,17.9c-0.5,10.26-0.85,20.53-1.21,30.8c-0.2,5.67-0.37,11.35-0.58,17.02
		c-0.27,7.05-0.36,14.09-0.58,21.14c-0.37,12.03-0.76,24.07-1.19,36.1c-0.38,10.86-0.83,21.71-1.15,32.57
		c-0.3,10.27-0.78,20.54-1.19,30.8C486.3,603.61,486.18,603.77,485.95,604.32z"/>
	<path fill="#FFFFFF" d="M485.24,790.19c-1.33-6.32-2.01-12.73-2.94-19.11c-3.36-22.93-6.6-45.89-9.88-68.84
		c-1.26-8.81-2.52-17.62-3.78-26.42c-0.05-0.38-0.25-0.76,0.13-1.36c3,1.1,5.52,3.07,7.81,5.23c7.51,7.06,11.92,15.74,12.65,26.07
		c0.25,3.5,0.04,7.06-0.31,10.55c-0.35,3.52-0.23,7.04-0.45,10.55c-0.44,7.32-0.42,14.68-0.68,22.01
		c-0.35,9.78-0.71,19.57-0.92,29.35c-0.07,3.12-0.19,6.26-0.24,9.39c-0.01,0.88,0.02,1.77-0.4,2.59
		C485.9,790.2,485.57,790.19,485.24,790.19z"/>
	<path fill="#FFFFFF" d="M413.05,793.05c1.38-3.1,3.61-5.48,5.95-7.77c5.52-5.41,12.12-9.26,18.89-12.81
		c5.12-2.68,10.33-5.19,15.51-7.77c0.48-0.24,0.95-0.76,1.94-0.08C441.29,774.35,427.23,783.75,413.05,793.05z"/>
	<path fill="#FFFFFF" d="M485.24,790.19c0.33,0.01,0.66,0.01,0.98,0.02c0.32,2.54,0.11,5.07-0.22,7.56
		C486.21,795.2,485,792.76,485.24,790.19z"/>
	<path fill="#FAFBFB" d="M614.33,212.28c-0.68-0.16-1.33-0.38-1.4-1.22c-0.08-0.96,0.41-1.48,1.35-1.48c0.84,0,1.25,0.62,1.3,1.32
		C615.64,211.67,615.09,212.11,614.33,212.28z"/>
</g>
</svg>
